<svg width="60" height="60" xmlns="http://www.w3.org/2000/svg" xmlns:xlink="http://www.w3.org/1999/xlink" xml:space="preserve" overflow="hidden"><g transform="translate(-1011 -479)"><path d="M1056.62 530.25 1025.38 530.25 1025.38 491.5 1032.25 491.5 1032.25 495.25 1049.75 495.25 1049.75 491.5 1056.62 491.5ZM1041 486.5C1042.04 486.5 1042.88 487.339 1042.88 488.375 1042.88 489.411 1042.04 490.25 1041 490.25 1039.96 490.25 1039.12 489.411 1039.12 488.375 1039.11 487.357 1039.92 486.517 1040.94 486.5 1040.96 486.5 1040.98 486.5 1041 486.5ZM1057.88 487.75 1047.25 487.75 1047.25 486.5C1047.25 485.119 1046.13 484 1044.75 484L1037.25 484C1035.87 484 1034.75 485.119 1034.75 486.5L1034.75 487.75 1024.12 487.75C1022.74 487.75 1021.62 488.869 1021.62 490.25L1021.62 531.5C1021.62 532.881 1022.74 534 1024.12 534L1057.88 534C1059.26 534 1060.38 532.881 1060.38 531.5L1060.38 490.25C1060.38 488.869 1059.26 487.75 1057.88 487.75Z"/><path d="M1029.12 500.25 1052.88 500.25 1052.88 502.75 1029.12 502.75Z"/><path d="M1043.5 518.375 1052.88 518.375 1052.88 520.875 1043.5 520.875Z"/><path d="M1029.12 505.25 1041 505.25 1041 507.75 1029.12 507.75Z"/><path d="M1037.74 523.234C1037.43 523.372 1037.1 523.444 1036.76 523.443 1036.63 523.443 1036.49 523.432 1036.35 523.409 1036.07 523.587 1035.76 523.705 1035.43 523.759L1037.92 528.255 1038.96 526.556 1041 526.896 1038.6 522.583C1038.36 522.861 1038.07 523.083 1037.74 523.234Z"/><path d="M1033.82 523.473C1033.7 523.491 1033.58 523.5 1033.46 523.5 1033.15 523.5 1032.85 523.443 1032.56 523.332 1032.12 523.164 1031.74 522.87 1031.46 522.487 1031.44 522.483 1031.42 522.474 1031.4 522.468L1029.12 526.938 1031.14 526.477 1032.16 528.375 1034.54 523.74C1034.29 523.689 1034.05 523.599 1033.82 523.473Z"/><path d="M1034.94 520.5C1033.03 520.5 1031.48 518.951 1031.48 517.041 1031.48 515.131 1033.03 513.583 1034.94 513.583 1036.85 513.583 1038.4 515.131 1038.4 517.041 1038.4 517.041 1038.4 517.042 1038.4 517.042 1038.4 518.952 1036.85 520.5 1034.94 520.5ZM1040.84 517.042C1040.84 516.618 1040.67 516.212 1040.36 515.922 1040.53 515.533 1040.53 515.091 1040.36 514.703 1040.21 514.352 1039.93 514.073 1039.58 513.923 1039.56 513.547 1039.41 513.191 1039.14 512.923 1038.84 512.62 1038.43 512.46 1038 512.486 1037.86 512.087 1037.54 511.773 1037.14 511.625 1036.79 511.485 1036.4 511.485 1036.04 511.625 1035.76 511.372 1035.4 511.23 1035.02 511.226 1034.6 511.223 1034.19 511.396 1033.9 511.705 1033.51 511.535 1033.07 511.535 1032.68 511.705 1032.33 511.855 1032.05 512.135 1031.9 512.485 1031.53 512.502 1031.17 512.658 1030.9 512.922 1030.6 513.221 1030.44 513.637 1030.47 514.062 1030.07 514.21 1029.75 514.524 1029.61 514.922 1029.47 515.275 1029.47 515.668 1029.61 516.021 1029.35 516.301 1029.21 516.664 1029.21 517.041 1029.2 517.465 1029.38 517.87 1029.69 518.161 1029.52 518.549 1029.52 518.991 1029.69 519.38 1029.84 519.73 1030.12 520.01 1030.47 520.16 1030.48 520.536 1030.64 520.892 1030.9 521.16 1031.2 521.464 1031.62 521.623 1032.04 521.597 1032.19 521.995 1032.5 522.309 1032.9 522.457 1033.26 522.597 1033.65 522.597 1034 522.457 1034.28 522.71 1034.64 522.852 1035.02 522.857 1035.45 522.86 1035.85 522.686 1036.14 522.377 1036.53 522.547 1036.97 522.547 1037.36 522.377 1037.71 522.227 1037.99 521.948 1038.14 521.597 1038.52 521.58 1038.87 521.424 1039.14 521.16 1039.44 520.861 1039.6 520.446 1039.58 520.021 1039.98 519.872 1040.29 519.557 1040.44 519.159 1040.58 518.806 1040.58 518.412 1040.44 518.059 1040.69 517.782 1040.84 517.418 1040.84 517.04Z"/></g></svg>