<svg width="147" height="147" xmlns="http://www.w3.org/2000/svg" xmlns:xlink="http://www.w3.org/1999/xlink" xml:space="preserve" overflow="hidden"><g transform="translate(-903 -326)"><path d="M1023.66 358.753 1029.12 353.34C1030.3 352.298 1030.42 350.491 1029.38 349.304 1029.32 349.237 1029.26 349.172 1029.19 349.111L1023.83 343.752C1022.67 342.563 1020.76 342.541 1019.58 343.702 1019.56 343.719 1019.54 343.735 1019.53 343.752L1014.07 349.165Z" fill="#FFFFFF"/><path d="M1004.07 418.641 1004.07 414.047 992.581 414.047 992.581 430.891 990.284 430.891 990.284 435.484 1020.14 435.484 1020.14 381.891 1007.22 381.891 1002.62 386.484 1015.55 386.484 1015.55 400.266 991.812 400.266 991.812 404.859 1015.55 404.859 1015.55 414.047 1011.72 414.047 1011.72 418.641 1015.55 418.641 1015.55 430.891 997.175 430.891 997.175 418.641 1004.07 418.641Z" fill="#FFFFFF"/><path d="M1027.89 361.219 1018.7 370.406 1030.09 370.406 1030.09 445.438 940.477 445.438C940.832 444.448 941.071 443.42 941.191 442.375L941.281 440.844 941.281 370.406 986.422 370.406 995.593 361.219 941.281 361.219 941.281 359.688C941.281 352.076 935.111 345.906 927.5 345.906 919.889 345.906 913.719 352.076 913.719 359.688L913.719 440.844 913.809 442.375C914.571 449.085 920.08 454.256 926.825 454.591L926.825 454.625 1039.28 454.625 1039.28 361.219ZM927.5 445.438C924.963 445.438 922.906 443.381 922.906 440.844 922.906 438.307 924.963 436.25 927.5 436.25 930.037 436.25 932.094 438.307 932.094 440.844 932.094 443.381 930.037 445.438 927.5 445.438ZM932.094 427.866C929.125 426.795 925.875 426.795 922.906 427.866L922.906 359.688C922.906 357.15 924.963 355.094 927.5 355.094 930.037 355.094 932.094 357.15 932.094 359.688Z" fill="#FFFFFF"/><path d="M970.377 386.484 974.961 381.891 951.234 381.891 951.234 435.484 981.097 435.484 981.097 430.891 978.8 430.891 978.8 414.047 967.316 414.047 967.316 418.641 974.206 418.641 974.206 430.891 955.828 430.891 955.828 418.641 959.659 418.641 959.659 414.047 955.828 414.047 955.828 404.859 964.267 404.859 965.79 400.266 955.828 400.266 955.828 386.484 970.377 386.484Z" fill="#FFFFFF"/><path d="M1011.93 351.348 974.37 388.985 969.609 403.328 984.034 398.571 1021.6 361.007ZM982.45 395.932 976.031 398.048 974.9 396.915 977.013 390.496C978.547 389.044 980.957 389.078 982.45 390.571 983.931 392.009 983.966 394.374 982.528 395.855 982.503 395.881 982.477 395.907 982.45 395.932Z" fill="#FFFFFF"/></g></svg>