<svg width="60" height="59" xmlns="http://www.w3.org/2000/svg" xmlns:xlink="http://www.w3.org/1999/xlink" xml:space="preserve" overflow="hidden"><g transform="translate(-142 -233)"><path d="M17.8229 15.9792C18.8677 15.9792 19.6667 15.1802 19.6667 14.1354L19.6667 10.4479C19.6667 9.40312 18.8677 8.60417 17.8229 8.60417 16.7781 8.60417 15.9792 9.40312 15.9792 10.4479L15.9792 14.1354C15.9792 15.1802 16.7781 15.9792 17.8229 15.9792Z" transform="matrix(1.01695 0 0 1 142 233)"/><path d="M12.2917 41.7917 22.125 41.7917 22.125 46.7083 12.2917 46.7083 12.2917 41.7917ZM12.2917 34.4167 22.125 34.4167 22.125 39.3333 12.2917 39.3333 12.2917 34.4167ZM12.2917 27.0417 22.125 27.0417 22.125 31.9583 12.2917 31.9583 12.2917 27.0417ZM34.4167 27.0417 34.4167 31.9583 24.5833 31.9583 24.5833 27.0417 34.4167 27.0417ZM46.7083 27.0417 46.7083 31.9583 36.875 31.9583 36.875 27.0417 46.7083 27.0417ZM46.7083 39.3333 36.875 39.3333 36.875 34.4167 46.7083 34.4167 46.7083 39.3333ZM46.7083 46.7083 36.875 46.7083 36.875 41.7917 46.7083 41.7917 46.7083 46.7083ZM24.5833 39.3333 24.5833 34.4167 34.4167 34.4167 34.4167 39.3333 24.5833 39.3333ZM24.5833 46.7083 24.5833 41.7917 34.4167 41.7917 34.4167 46.7083 24.5833 46.7083ZM8.60417 50.3958 50.3958 50.3958 50.3958 23.3542 8.60417 23.3542 8.60417 50.3958Z" transform="matrix(1.01695 0 0 1 142 233)"/><path d="M41.1771 15.9792C42.2219 15.9792 43.0208 15.1802 43.0208 14.1354L43.0208 10.4479C43.0208 9.40312 42.2219 8.60417 41.1771 8.60417 40.1323 8.60417 39.3333 9.40312 39.3333 10.4479L39.3333 14.1354C39.3333 15.1802 40.1323 15.9792 41.1771 15.9792Z" transform="matrix(1.01695 0 0 1 142 233)"/><path d="M45.4792 12.2917 45.4792 14.1354C45.4792 16.5323 43.574 18.4375 41.1771 18.4375 38.7802 18.4375 36.875 16.5323 36.875 14.1354L36.875 12.2917 22.125 12.2917 22.125 14.1354C22.125 16.5323 20.2198 18.4375 17.8229 18.4375 15.426 18.4375 13.5208 16.5323 13.5208 14.1354L13.5208 12.2917 8.60417 12.2917 8.60417 20.8958 50.3958 20.8958 50.3958 12.2917 45.4792 12.2917Z" transform="matrix(1.01695 0 0 1 142 233)"/></g></svg>