<svg width="31" height="41" xmlns="http://www.w3.org/2000/svg" xmlns:xlink="http://www.w3.org/1999/xlink" xml:space="preserve" overflow="hidden"><defs><clipPath id="clip0"><rect x="739" y="615" width="31" height="41"/></clipPath></defs><g clip-path="url(#clip0)" transform="translate(-739 -615)"><path d="M2.94232 21.281 34.1209 21.281 30.4112 24.9907C29.9275 25.4744 29.9275 26.2586 30.4112 26.7423 30.8949 27.226 31.6791 27.226 32.1628 26.7423L37.9974 20.9061C38.4811 20.4454 38.4998 19.6799 38.0391 19.1962 38.0255 19.1819 38.0116 19.168 37.9974 19.1545L32.1615 13.3199C31.7009 12.8362 30.9353 12.8175 30.4516 13.2782 30.4374 13.2917 30.4235 13.3057 30.4099 13.3199 29.9262 13.7806 29.9075 14.5461 30.3682 15.0298 30.3818 15.044 30.3957 15.0579 30.4099 15.0715L34.1196 18.7833 2.94232 18.7833C2.25132 18.7833 1.69115 19.3434 1.69115 20.0344 1.69115 20.7255 2.25132 21.2856 2.94232 21.2856Z" fill="#000" transform="matrix(1 0 0 1.02405 729.963 615)"/></g></svg>