<svg width="125" height="124" xmlns="http://www.w3.org/2000/svg" xmlns:xlink="http://www.w3.org/1999/xlink" xml:space="preserve" overflow="hidden"><g transform="translate(-264 -348)"><path d="M29.7083 25.8333 43.9167 25.8333 43.9167 33.5833 80.0833 33.5833 80.0833 25.8333 94.2917 25.8333 94.2917 105.917 29.7083 105.917 29.7083 25.8333ZM62.1292 15.5C64.1958 15.5 65.875 17.3083 65.875 19.375 65.875 21.5708 64.1958 23.25 62 23.25 59.8042 23.25 58.125 21.5708 58.125 19.375 58.125 17.1792 59.8042 15.5 62.1292 15.5ZM21.9583 23.25 21.9583 108.5C21.9583 111.342 24.2833 113.667 27.125 113.667L96.875 113.667C99.7167 113.667 102.042 111.342 102.042 108.5L102.042 23.25C102.042 20.4083 99.7167 18.0833 96.875 18.0833L74.9167 18.0833 74.9167 15.5C74.9167 12.6583 72.5917 10.3333 69.75 10.3333L54.25 10.3333C51.4083 10.3333 49.0833 12.6583 49.0833 15.5L49.0833 18.0833 27.125 18.0833C24.2833 18.0833 21.9583 20.4083 21.9583 23.25Z" fill="#FFFFFF" transform="matrix(1.00806 0 0 1 264 348)"/><path d="M37.4583 43.9167 59.4167 43.9167 59.4167 49.0833 37.4583 49.0833Z" fill="#FFFFFF" transform="matrix(1.00806 0 0 1 264 348)"/><path d="M37.4583 59.4167 59.4167 59.4167 59.4167 64.5833 37.4583 64.5833Z" fill="#FFFFFF" transform="matrix(1.00806 0 0 1 264 348)"/><path d="M37.4583 74.9167 59.4167 74.9167 59.4167 80.0833 37.4583 80.0833Z" fill="#FFFFFF" transform="matrix(1.00806 0 0 1 264 348)"/><path d="M37.4583 90.4167 59.4167 90.4167 59.4167 95.5833 37.4583 95.5833Z" fill="#FFFFFF" transform="matrix(1.00806 0 0 1 264 348)"/><path d="M68.3292 46.2417 71.0417 43.5292 74.4 46.8875 82.925 38.3625 85.6375 41.075 74.4 52.3125Z" fill="#FFFFFF" transform="matrix(1.00806 0 0 1 264 348)"/><path d="M68.3292 61.7417 71.0417 59.0292 74.4 62.3875 82.925 53.8625 85.6375 56.575 74.4 67.8125Z" fill="#FFFFFF" transform="matrix(1.00806 0 0 1 264 348)"/><path d="M68.3292 77.2417 71.0417 74.5292 74.4 77.8875 82.925 69.3625 85.6375 72.075 74.4 83.3125Z" fill="#FFFFFF" transform="matrix(1.00806 0 0 1 264 348)"/><path d="M68.3292 92.7417 71.0417 90.0292 74.4 93.3875 82.925 84.8625 85.6375 87.575 74.4 98.8125Z" fill="#FFFFFF" transform="matrix(1.00806 0 0 1 264 348)"/></g></svg>