<svg width="60" height="59" xmlns="http://www.w3.org/2000/svg" xmlns:xlink="http://www.w3.org/1999/xlink" xml:space="preserve" overflow="hidden"><g transform="translate(-142 -553)"><path d="M29.5 49.1667C18.6833 49.1667 9.83333 40.3167 9.83333 29.5 9.83333 18.6833 18.6833 9.83333 29.5 9.83333 40.3167 9.83333 49.1667 18.6833 49.1667 29.5 49.1667 40.3167 40.3167 49.1667 29.5 49.1667ZM29.5 6.14583C16.5938 6.14583 6.14583 16.5938 6.14583 29.5 6.14583 42.4062 16.5938 52.8542 29.5 52.8542 42.4062 52.8542 52.8542 42.4062 52.8542 29.5 52.8542 16.5938 42.4062 6.14583 29.5 6.14583Z" transform="matrix(1.01695 0 0 1 142 553)"/><path d="M30.7292 17.2083 28.2708 17.2083 28.2708 29.5C28.2708 29.8687 28.3937 30.176 28.6396 30.3604L37.3052 39.026 39.026 37.3052 30.7292 29.0083 30.7292 17.2083Z" transform="matrix(1.01695 0 0 1 142 553)"/><path d="M30.7292 13.5208C30.7292 14.1997 30.1788 14.75 29.5 14.75 28.8211 14.75 28.2708 14.1997 28.2708 13.5208 28.2708 12.842 28.8211 12.2917 29.5 12.2917 30.1788 12.2917 30.7292 12.842 30.7292 13.5208Z" transform="matrix(1.01695 0 0 1 142 553)"/><path d="M30.7292 45.4792C30.7292 46.158 30.1788 46.7083 29.5 46.7083 28.8211 46.7083 28.2708 46.158 28.2708 45.4792 28.2708 44.8003 28.8211 44.25 29.5 44.25 30.1788 44.25 30.7292 44.8003 30.7292 45.4792Z" transform="matrix(1.01695 0 0 1 142 553)"/><path d="M14.75 29.5C14.75 30.1788 14.1997 30.7292 13.5208 30.7292 12.842 30.7292 12.2917 30.1788 12.2917 29.5 12.2917 28.8211 12.842 28.2708 13.5208 28.2708 14.1997 28.2708 14.75 28.8211 14.75 29.5Z" transform="matrix(1.01695 0 0 1 142 553)"/><path d="M46.7083 29.5C46.7083 30.1788 46.158 30.7292 45.4792 30.7292 44.8003 30.7292 44.25 30.1788 44.25 29.5 44.25 28.8211 44.8003 28.2708 45.4792 28.2708 46.158 28.2708 46.7083 28.8211 46.7083 29.5Z" transform="matrix(1.01695 0 0 1 142 553)"/></g></svg>