<svg width="60" height="59" xmlns="http://www.w3.org/2000/svg" xmlns:xlink="http://www.w3.org/1999/xlink" xml:space="preserve" overflow="hidden"><g transform="translate(-1013 -163)"><path d="M20.2812 18.9292C20.2812 21.984 17.8048 24.4604 14.75 24.4604 11.6952 24.4604 9.21875 21.984 9.21875 18.9292 9.21875 15.8743 11.6952 13.3979 14.75 13.3979 17.8048 13.3979 20.2812 15.8743 20.2812 18.9292Z" transform="matrix(1.01695 0 0 1 1013 163)"/><path d="M49.7812 18.9292C49.7812 21.984 47.3048 24.4604 44.25 24.4604 41.1952 24.4604 38.7188 21.984 38.7188 18.9292 38.7188 15.8743 41.1952 13.3979 44.25 13.3979 47.3048 13.3979 49.7812 15.8743 49.7812 18.9292Z" transform="matrix(1.01695 0 0 1 1013 163)"/><path d="M40.5625 45.6021 40.5625 40.0708C40.5625 39.2104 40.1937 38.35 39.4562 37.8583 37.9812 36.6292 36.0146 35.7687 34.0479 35.2771 32.6958 34.9083 31.0979 34.5396 29.5 34.5396 28.025 34.5396 26.4271 34.7854 24.9521 35.2771 22.9854 35.7687 21.1417 36.7521 19.5437 37.8583 18.8062 38.4729 18.4375 39.2104 18.4375 40.0708L18.4375 45.6021 40.5625 45.6021Z" transform="matrix(1.01695 0 0 1 1013 163)"/><path d="M35.0312 27.5333C35.0312 30.5882 32.5548 33.0646 29.5 33.0646 26.4452 33.0646 23.9688 30.5882 23.9688 27.5333 23.9688 24.4785 26.4452 22.0021 29.5 22.0021 32.5548 22.0021 35.0312 24.4785 35.0312 27.5333Z" transform="matrix(1.01695 0 0 1 1013 163)"/><path d="M54.2062 29.2542C52.7313 28.025 50.7646 27.1646 48.7979 26.6729 47.4458 26.3042 45.8479 25.9354 44.25 25.9354 42.775 25.9354 41.1771 26.1812 39.7021 26.6729 38.9646 26.9187 38.2271 27.1646 37.4896 27.5333L37.4896 27.6562C37.4896 29.7458 36.6292 31.7125 35.2771 33.0646 37.6125 33.8021 39.4562 34.7854 40.9312 35.8917 41.3 36.2604 41.6688 36.5062 41.9146 36.9979L55.3125 36.9979 55.3125 31.4667C55.3125 30.6062 54.9437 29.7458 54.2062 29.2542Z" transform="matrix(1.01695 0 0 1 1013 163)"/><path d="M18.0687 35.8917 18.0687 35.8917C19.7896 34.6625 21.7563 33.6792 23.7229 33.0646 22.3708 31.5896 21.5104 29.7458 21.5104 27.6562 21.5104 27.5333 21.5104 27.5333 21.5104 27.4104 20.7729 27.1646 20.0354 26.7958 19.2979 26.6729 17.9458 26.3042 16.3479 25.9354 14.75 25.9354 13.275 25.9354 11.6771 26.1812 10.2021 26.6729 8.23542 27.2875 6.39167 28.1479 4.79375 29.2542 4.05625 29.7458 3.6875 30.6062 3.6875 31.4667L3.6875 36.9979 16.9625 36.9979C17.3312 36.5062 17.5771 36.2604 18.0687 35.8917Z" transform="matrix(1.01695 0 0 1 1013 163)"/></g></svg>