<svg width="60" height="59" xmlns="http://www.w3.org/2000/svg" xmlns:xlink="http://www.w3.org/1999/xlink" xml:space="preserve" overflow="hidden"><g transform="translate(-535 -559)"><path d="M12.2917 8.60417 8.60417 8.60417 8.60417 50.3958 50.3958 50.3958 50.3958 46.7083 12.2917 46.7083Z" transform="matrix(1.01695 0 0 1 535 559)"/><path d="M15.9792 21.5104 22.7396 21.5104 22.7396 43.0208 15.9792 43.0208Z" transform="matrix(1.01695 0 0 1 535 559)"/><path d="M25.1979 8.60417 31.9583 8.60417 31.9583 43.0208 25.1979 43.0208Z" transform="matrix(1.01695 0 0 1 535 559)"/><path d="M34.4167 21.5104 41.1771 21.5104 41.1771 43.0208 34.4167 43.0208Z" transform="matrix(1.01695 0 0 1 535 559)"/><path d="M43.6354 31.9583 50.3958 31.9583 50.3958 43.0208 43.6354 43.0208Z" transform="matrix(1.01695 0 0 1 535 559)"/></g></svg>