<svg width="60" height="60" xmlns="http://www.w3.org/2000/svg" xmlns:xlink="http://www.w3.org/1999/xlink" xml:space="preserve" overflow="hidden"><g transform="translate(-535 -284)"><path d="M575 302.75C575 308.273 570.523 312.75 565 312.75 559.477 312.75 555 308.273 555 302.75 555 297.227 559.477 292.75 565 292.75 570.523 292.75 575 297.227 575 302.75Z"/><path d="M585 335.25 585 325.25C585 323.75 584.25 322.25 583 321.25 580.25 319 576.75 317.5 573.25 316.5 570.75 315.75 568 315.25 565 315.25 562.25 315.25 559.5 315.75 556.75 316.5 553.25 317.5 549.75 319.25 547 321.25 545.75 322.25 545 323.75 545 325.25L545 335.25 585 335.25Z"/></g></svg>